<?xml version="1.0" standalone="no"?>
<!DOCTYPE svg PUBLIC "-//W3C//DTD SVG 20010904//EN"
 "http://www.w3.org/TR/2001/REC-SVG-20010904/DTD/svg10.dtd">
<svg version="1.0" xmlns="http://www.w3.org/2000/svg"
 width="512.000000pt" height="512.000000pt" viewBox="0 0 512.000000 512.000000"
 preserveAspectRatio="xMidYMid meet">
<metadata>
Created by potrace 1.11, written by Peter Selinger 2001-2013
</metadata>
<g transform="translate(0.000000,512.000000) scale(0.100000,-0.100000)"
fill="#000000" stroke="none">
<path d="M75 5110 c-11 -4 -31 -20 -45 -35 l-25 -27 0 -2489 0 -2489 33 -32
32 -33 2490 0 2490 0 32 33 33 32 0 2490 0 2490 -33 32 -32 33 -2478 2 c-1362
1 -2486 -2 -2497 -7z m3614 -1584 c235 -66 424 -192 560 -376 184 -247 245
-590 160 -901 -29 -109 -108 -262 -183 -356 -384 -483 -1201 -510 -1627 -56
-119 128 -197 273 -241 450 -33 130 -32 381 1 506 77 295 249 512 511 646 189
96 311 122 550 117 151 -3 188 -8 269 -30z m-2621 -898 l2 -918 560 0 560 0 0
-90 0 -90 -670 0 -670 0 0 1010 0 1011 108 -3 107 -3 3 -917z"/>
<path d="M3195 3354 c-148 -32 -301 -113 -405 -214 -125 -121 -204 -271 -235
-447 -35 -201 -7 -382 88 -568 52 -101 188 -242 292 -303 154 -90 366 -134
553 -113 298 32 534 192 657 446 69 142 80 194 80 385 0 145 -3 174 -23 240
-88 281 -299 488 -577 565 -87 24 -338 29 -430 9z"/>
</g>
</svg>
